<?xml version="1.0" encoding="iso-8859-1"?>
<!-- Uploaded to: SVG Repo, www.svgrepo.com, Generator: SVG Repo Mixer Tools -->
<svg fill="#000000" height="800px" width="800px" version="1.1" id="Layer_1" xmlns="http://www.w3.org/2000/svg" xmlns:xlink="http://www.w3.org/1999/xlink" 
	 viewBox="0 0 512 512" xml:space="preserve">
<g>
	<g>
		<path d="M489.739,0H22.261C13.044,0,5.565,7.473,5.565,16.696c0,9.223,7.479,16.696,16.696,16.696h217.044v45.43
			c-68.429,6.736-130.125,54.614-167.46,132.657h368.309c-37.334-78.043-99.03-125.921-167.458-132.657v-45.43h217.043
			c9.217,0,16.696-7.473,16.696-16.696C506.435,7.473,498.956,0,489.739,0z"/>
	</g>
</g>
<g>
	<g>
		<path d="M48.744,445.217c4.641,19.615,10.76,38.631,18.648,56.75C70.044,508.06,76.054,512,82.696,512h106.522
			c9.217,0,16.696-7.473,16.696-16.696v-50.087H48.744z"/>
	</g>
</g>
<g>
	<g>
		<path d="M306.087,445.217v50.087c0,9.223,7.479,16.696,16.696,16.696h106.522c6.642,0,12.652-3.94,15.304-10.033
			c7.888-18.118,14.006-37.136,18.648-56.75H306.087z"/>
	</g>
</g>
<g>
	<g>
		<path d="M472.646,345.043H39.355c-0.947,21.079-0.195,43.107,2.91,66.783h165.102c6.773-10.827,13.126-22.487,24.655-27.878
			c21.652-10.126,44.454-5.862,59.37,9.183c5.261,5.27,9.09,11.213,12.128,18.696h166.217
			C472.841,388.151,473.592,366.103,472.646,345.043z"/>
	</g>
</g>
<g>
	<g>
		<path d="M453.858,244.87H58.141c-7.285,21.132-12.597,43.458-15.844,66.783h427.405
			C466.457,288.327,461.144,266.002,453.858,244.87z"/>
	</g>
</g>
</svg>